<svg width="20" height="21" viewBox="0 0 20 21" fill="none" xmlns="http://www.w3.org/2000/svg">
  <path fill-rule="evenodd" clip-rule="evenodd" d="M9.99 0.289703C4.47 0.289703 0 4.7697 0 10.2897C0 15.8097 4.47 20.2897 9.99 20.2897C15.52 20.2897 20 15.8097 20 10.2897C20 4.7697 15.52 0.289703 9.99 0.289703ZM11 11.2897V5.2897H9V11.2897H11ZM11 15.2897V13.2897H9V15.2897H11ZM2 10.2897C2 14.7097 5.58 18.2897 10 18.2897C14.42 18.2897 18 14.7097 18 10.2897C18 5.8697 14.42 2.2897 10 2.2897C5.58 2.2897 2 5.8697 2 10.2897Z" fill="#FF5252"/>
</svg>
