<svg width="67" height="67" viewBox="0 0 67 67" fill="none" xmlns="http://www.w3.org/2000/svg">
  <path fill-rule="evenodd" clip-rule="evenodd" d="M33.4665 0C14.9745 0 0 15.008 0 33.5C0 51.992 14.9745 67 33.4665 67C51.992 67 67 51.992 67 33.5C67 15.008 51.992 0 33.4665 0ZM21.775 20.1C18.9998 20.1 16.75 22.3498 16.75 25.125C16.75 27.9002 18.9998 30.15 21.775 30.15C24.5502 30.15 26.8 27.9002 26.8 25.125C26.8 22.3498 24.5502 20.1 21.775 20.1ZM45.225 20.1C42.4498 20.1 40.2 22.3498 40.2 25.125C40.2 27.9002 42.4498 30.15 45.225 30.15C48.0002 30.15 50.25 27.9002 50.25 25.125C50.25 22.3498 48.0002 20.1 45.225 20.1ZM16.348 51.925C19.028 45.0575 25.6945 40.2 33.5 40.2C41.3055 40.2 47.972 45.0575 50.652 51.925H45.0575C42.7125 47.9385 38.458 45.225 33.5 45.225C28.542 45.225 24.254 47.9385 21.9425 51.925H16.348ZM6.7 33.5C6.7 48.307 18.693 60.3 33.5 60.3C48.307 60.3 60.3 48.307 60.3 33.5C60.3 18.693 48.307 6.70001 33.5 6.70001C18.693 6.70001 6.7 18.693 6.7 33.5Z" fill="#3C48C9" fill-opacity="0.54"/>
</svg>
