<svg width="19" height="19" viewBox="0 0 19 19" fill="#202125" xmlns="http://www.w3.org/2000/svg">
  <path fill-rule="evenodd" clip-rule="evenodd" d="M12.5885 11.849H13.4115L18.6094 17.0573L17.0573 18.6094L11.849 13.4115V12.5885L11.5677 12.2969C10.3802 13.3177 8.83854 13.9323 7.16146 13.9323C3.42188 13.9323 0.390625 10.901 0.390625 7.16146C0.390625 3.42187 3.42188 0.390625 7.16146 0.390625C10.901 0.390625 13.9323 3.42187 13.9323 7.16146C13.9323 8.83854 13.3177 10.3802 12.2969 11.5677L12.5885 11.849ZM2.47396 7.16146C2.47396 9.75521 4.56771 11.849 7.16146 11.849C9.75521 11.849 11.849 9.75521 11.849 7.16146C11.849 4.56771 9.75521 2.47396 7.16146 2.47396C4.56771 2.47396 2.47396 4.56771 2.47396 7.16146Z" />
</svg>
