<svg xmlns="http://www.w3.org/2000/svg" viewBox="0 0 574.41 147.16"><defs><style>.cls-1{fill:#3c48c9;}.cls-2{fill:#202125;}.cls-3{fill:#16c7c3;}.cls-4{fill:#4edaae;}</style></defs><g id="레이어_2" data-name="레이어 2"><g id="레이어_1-2" data-name="레이어 1"><path class="cls-1" d="M418.6,7.29H535.32V25.86H487.67C490,43.7,510.33,44.6,535.32,44.6V62.44c-35.51,0-50.68-3.92-58.36-17.84-8,13.92-24.45,17.84-58.36,17.84V44.6c25.7,0,45.33-.9,47.47-18.74H418.6Z"/><path class="cls-2" d="M553.52,67.8V78.86h-114V67.8H418.6V79h-15L416.81,27h-156V45.6H389.51L381.12,79H260.92V97.9h67.91v49.26h20.88V97.9H418.6v29.5H574.4V67.8Zm0,41h-114V97.9h114Z"/><rect class="cls-3" x="553.52" y="5.51" width="20.88" height="56.93"/><path class="cls-4" d="M161.43,27.67a31.83,31.83,0,0,1-3.78,16H133.32A8.93,8.93,0,0,1,124.48,37h5c7.85,0,12-2.86,12-9.28a13.28,13.28,0,0,0-.11-1.71c-.72-5.2-4.9-7.39-11.85-7.39H0V0H134.84c8.33,0,15,2.61,19.57,7.4,4.24,4.44,6.68,10.73,7,18.56C161.42,26.52,161.43,27.09,161.43,27.67Z"/><path class="cls-1" d="M224.16,34.71a27.23,27.23,0,0,1-27.31,27.48h-67.1a27.45,27.45,0,0,1-18.08-6.68A27,27,0,0,1,102.36,37c-.07-.74-.1-1.48-.1-2.24a27,27,0,0,1,5.3-16.14h21.92c7,0,11.13,2.19,11.85,7.39h-8a8.85,8.85,0,0,0-9.11,8.75,9.1,9.1,0,0,0,.27,2.24,8.93,8.93,0,0,0,8.84,6.68h59.61a8.63,8.63,0,0,0,8.92-8.92A8.59,8.59,0,0,0,192.93,26H161.39c-.3-7.83-2.74-14.12-7-18.56h42.44A27.31,27.31,0,0,1,224.16,34.71Z"/><path class="cls-2" d="M260.92,109v18.57H0V37H102.36a27,27,0,0,0,9.31,18.56H20.53V109H127.06V79h20.88v30Z"/><rect class="cls-3" x="240.04" y="5.62" width="20.88" height="56.58"/></g></g></svg>